<?xml version="1.0" encoding="UTF-8" standalone="no"?>
<!-- Created with Inkscape (http://www.inkscape.org/) -->

<svg
   width="57.431011mm"
   height="46.135578mm"
   viewBox="0 0 57.431011 46.135578"
   version="1.1"
   id="svg8"
   inkscape:version="1.1.2 (0a00cf5339, 2022-02-04)"
   sodipodi:docname="logo.svg"
   xmlns:inkscape="http://www.inkscape.org/namespaces/inkscape"
   xmlns:sodipodi="http://sodipodi.sourceforge.net/DTD/sodipodi-0.dtd"
   xmlns="http://www.w3.org/2000/svg"
   xmlns:svg="http://www.w3.org/2000/svg"
   xmlns:rdf="http://www.w3.org/1999/02/22-rdf-syntax-ns#"
   xmlns:cc="http://creativecommons.org/ns#"
   xmlns:dc="http://purl.org/dc/elements/1.1/">
  <defs
     id="defs2">
    <marker
       inkscape:stockid="DotM"
       orient="auto"
       refY="0"
       refX="0"
       id="marker4453"
       style="overflow:visible"
       inkscape:isstock="true">
      <path
         id="path1053"
         d="m -2.5,-1 c 0,2.76 -2.24,5 -5,5 -2.76,0 -5,-2.24 -5,-5 0,-2.76 2.24,-5 5,-5 2.76,0 5,2.24 5,5 z"
         style="fill:#399746;fill-opacity:1;fill-rule:evenodd;stroke:#399746;stroke-width:1pt;stroke-opacity:1"
         transform="matrix(0.4,0,0,0.4,2.96,0.4)" />
    </marker>
    <marker
       inkscape:isstock="true"
       style="overflow:visible"
       id="marker3734"
       refX="0"
       refY="0"
       orient="auto"
       inkscape:stockid="TriangleOutM">
      <path
         transform="scale(0.4)"
         style="fill:#000000;fill-opacity:1;fill-rule:evenodd;stroke:#000000;stroke-width:1pt;stroke-opacity:1"
         d="M 5.77,0 -2.88,5 V -5 Z"
         id="path3732" />
    </marker>
    <marker
       inkscape:stockid="Arrow1Send"
       orient="auto"
       refY="0"
       refX="0"
       id="Arrow1Send"
       style="overflow:visible"
       inkscape:isstock="true">
      <path
         id="path1004"
         d="M 0,0 5,-5 -12.5,0 5,5 Z"
         style="fill:#000000;fill-opacity:1;fill-rule:evenodd;stroke:#000000;stroke-width:1pt;stroke-opacity:1"
         transform="matrix(-0.2,0,0,-0.2,-1.2,0)" />
    </marker>
    <marker
       inkscape:stockid="Arrow1Mend"
       orient="auto"
       refY="0"
       refX="0"
       id="marker2032"
       style="overflow:visible"
       inkscape:isstock="true">
      <path
         id="path2030"
         d="M 0,0 5,-5 -12.5,0 5,5 Z"
         style="fill:#000000;fill-opacity:1;fill-rule:evenodd;stroke:#000000;stroke-width:1pt;stroke-opacity:1"
         transform="matrix(-0.4,0,0,-0.4,-4,0)" />
    </marker>
    <marker
       inkscape:stockid="Arrow1Mend"
       orient="auto"
       refY="0"
       refX="0"
       id="marker1962"
       style="overflow:visible"
       inkscape:isstock="true">
      <path
         id="path998"
         d="M 0,0 5,-5 -12.5,0 5,5 Z"
         style="fill:#000000;fill-opacity:1;fill-rule:evenodd;stroke:#000000;stroke-width:1pt;stroke-opacity:1"
         transform="matrix(-0.4,0,0,-0.4,-4,0)" />
    </marker>
    <marker
       inkscape:isstock="true"
       style="overflow:visible"
       id="marker1725"
       refX="0"
       refY="0"
       orient="auto"
       inkscape:stockid="Arrow2Lend">
      <path
         transform="matrix(-1.1,0,0,-1.1,-1.1,0)"
         d="M 8.7185878,4.0337352 -2.2072895,0.01601326 8.7185884,-4.0017078 c -1.7454984,2.3720609 -1.7354408,5.6174519 -6e-7,8.035443 z"
         style="fill:#000000;fill-opacity:1;fill-rule:evenodd;stroke:#000000;stroke-width:0.625;stroke-linejoin:round;stroke-opacity:1"
         id="path1723" />
    </marker>
    <marker
       inkscape:stockid="Arrow1Mend"
       orient="auto"
       refY="0"
       refX="0"
       id="Arrow1Mend"
       style="overflow:visible"
       inkscape:isstock="true">
      <path
         id="path977"
         d="M 0,0 5,-5 -12.5,0 5,5 Z"
         style="fill:#1a1a1a;fill-opacity:1;fill-rule:evenodd;stroke:#1a1a1a;stroke-width:1pt;stroke-opacity:1"
         transform="matrix(-0.4,0,0,-0.4,-4,0)" />
    </marker>
    <marker
       inkscape:stockid="DotM"
       orient="auto"
       refY="0"
       refX="0"
       id="DotM"
       style="overflow:visible"
       inkscape:isstock="true">
      <path
         id="path992"
         d="m -2.5,-1 c 0,2.76 -2.24,5 -5,5 -2.76,0 -5,-2.24 -5,-5 0,-2.76 2.24,-5 5,-5 2.76,0 5,2.24 5,5 z"
         style="fill:#264653;fill-opacity:1;fill-rule:evenodd;stroke:#264653;stroke-width:1pt;stroke-opacity:1"
         transform="matrix(0.4,0,0,0.4,2.96,0.4)" />
    </marker>
    <marker
       inkscape:isstock="true"
       style="overflow:visible"
       id="marker5401"
       refX="0"
       refY="0"
       orient="auto"
       inkscape:stockid="Arrow2Mend">
      <path
         transform="scale(-0.6)"
         d="M 8.7185878,4.0337352 -2.2072895,0.01601326 8.7185884,-4.0017078 c -1.7454984,2.3720609 -1.7354408,5.6174519 -6e-7,8.035443 z"
         style="fill:#264653;fill-opacity:1;fill-rule:evenodd;stroke:#264653;stroke-width:0.625;stroke-linejoin:round;stroke-opacity:1"
         id="path5399"
         inkscape:connector-curvature="0" />
    </marker>
    <marker
       inkscape:isstock="true"
       style="overflow:visible"
       id="marker4973"
       refX="0"
       refY="0"
       orient="auto"
       inkscape:stockid="Arrow2Lend">
      <path
         transform="matrix(-1.1,0,0,-1.1,-1.1,0)"
         d="M 8.7185878,4.0337352 -2.2072895,0.01601326 8.7185884,-4.0017078 c -1.7454984,2.3720609 -1.7354408,5.6174519 -6e-7,8.035443 z"
         style="fill:#000000;fill-opacity:1;fill-rule:evenodd;stroke:#000000;stroke-width:0.625;stroke-linejoin:round;stroke-opacity:1"
         id="path4971"
         inkscape:connector-curvature="0" />
    </marker>
    <marker
       inkscape:stockid="Arrow1Lend"
       orient="auto"
       refY="0"
       refX="0"
       id="Arrow1Lend"
       style="overflow:visible"
       inkscape:isstock="true">
      <path
         id="path4532"
         d="M 0,0 5,-5 -12.5,0 5,5 Z"
         style="fill:#000000;fill-opacity:1;fill-rule:evenodd;stroke:#000000;stroke-width:1pt;stroke-opacity:1"
         transform="matrix(-0.8,0,0,-0.8,-10,0)"
         inkscape:connector-curvature="0" />
    </marker>
    <style
       id="style1344">.cls-1{fill:#1a1a1a}.cls-2{fill:#4d64ae}.cls-3{fill:#ca3c32}.cls-4{fill:#9259a3}.cls-5{fill:#399746}</style>
    <clipPath
       clipPathUnits="userSpaceOnUse"
       id="clipPath2138">
      <rect
         style="fill:none;fill-opacity:0.945098;fill-rule:nonzero;stroke:#264653;stroke-width:0.661458;stroke-linecap:butt;stroke-linejoin:miter;stroke-miterlimit:4;stroke-dasharray:none;stroke-dashoffset:0;stroke-opacity:0.945098;paint-order:markers stroke fill"
         id="rect2140"
         width="56.885414"
         height="45.772915"
         x="-505.02551"
         y="-15.879046" />
    </clipPath>
    <clipPath
       clipPathUnits="userSpaceOnUse"
       id="clipPath940">
      <rect
         style="fill:none;fill-opacity:1;fill-rule:nonzero;stroke:#fefefe;stroke-width:1.00542;stroke-linecap:round;stroke-linejoin:miter;stroke-miterlimit:4;stroke-dasharray:none;stroke-dashoffset:0;stroke-opacity:1;paint-order:markers stroke fill"
         id="rect942"
         width="55.834122"
         height="44.61631"
         x="-503.90009"
         y="-15.773171" />
    </clipPath>
    <clipPath
       clipPathUnits="userSpaceOnUse"
       id="clipPath970">
      <rect
         style="fill:none;fill-opacity:1;fill-rule:nonzero;stroke:#000000;stroke-width:1.1747;stroke-linecap:round;stroke-linejoin:miter;stroke-miterlimit:4;stroke-dasharray:4.69881, 1.1747;stroke-dashoffset:0;stroke-opacity:1;paint-order:markers stroke fill"
         id="rect972"
         width="56.344025"
         height="45.636112"
         x="-504.41"
         y="-16.028122" />
    </clipPath>
    <clipPath
       id="clip682">
      <rect
         x="546"
         y="47"
         width="1440"
         height="1440"
         id="rect16" />
    </clipPath>
    <clipPath
       id="clipPath4808">
      <rect
         x="546"
         y="47"
         width="1440"
         height="1440"
         id="rect4806" />
    </clipPath>
    <clipPath
       id="clipPath4812">
      <rect
         x="546"
         y="47"
         width="1440"
         height="1440"
         id="rect4810" />
    </clipPath>
    <clipPath
       id="clipPath4816">
      <rect
         x="546"
         y="47"
         width="1440"
         height="1440"
         id="rect4814" />
    </clipPath>
    <clipPath
       id="clipPath4820">
      <rect
         x="546"
         y="47"
         width="1440"
         height="1440"
         id="rect4818" />
    </clipPath>
    <clipPath
       id="clipPath4824">
      <rect
         x="546"
         y="47"
         width="1440"
         height="1440"
         id="rect4822" />
    </clipPath>
    <clipPath
       id="clipPath4828">
      <rect
         x="546"
         y="47"
         width="1440"
         height="1440"
         id="rect4826" />
    </clipPath>
    <clipPath
       id="clipPath4832">
      <rect
         x="546"
         y="47"
         width="1440"
         height="1440"
         id="rect4830" />
    </clipPath>
    <clipPath
       id="clipPath4836">
      <rect
         x="546"
         y="47"
         width="1440"
         height="1440"
         id="rect4834" />
    </clipPath>
    <clipPath
       id="clipPath4840">
      <rect
         x="546"
         y="47"
         width="1440"
         height="1440"
         id="rect4838" />
    </clipPath>
    <clipPath
       id="clipPath4844">
      <rect
         x="546"
         y="47"
         width="1440"
         height="1440"
         id="rect4842" />
    </clipPath>
    <clipPath
       id="clipPath4848">
      <rect
         x="546"
         y="47"
         width="1440"
         height="1440"
         id="rect4846" />
    </clipPath>
    <clipPath
       id="clipPath4852">
      <rect
         x="546"
         y="47"
         width="1440"
         height="1440"
         id="rect4850" />
    </clipPath>
    <clipPath
       id="clipPath4856">
      <rect
         x="546"
         y="47"
         width="1440"
         height="1440"
         id="rect4854" />
    </clipPath>
    <clipPath
       id="clipPath4860">
      <rect
         x="546"
         y="47"
         width="1440"
         height="1440"
         id="rect4858" />
    </clipPath>
    <clipPath
       id="clipPath4864">
      <rect
         x="546"
         y="47"
         width="1440"
         height="1440"
         id="rect4862" />
    </clipPath>
    <clipPath
       id="clipPath4868">
      <rect
         x="546"
         y="47"
         width="1440"
         height="1440"
         id="rect4866" />
    </clipPath>
    <clipPath
       id="clipPath4872">
      <rect
         x="546"
         y="47"
         width="1440"
         height="1440"
         id="rect4870" />
    </clipPath>
    <clipPath
       id="clipPath4876">
      <rect
         x="546"
         y="47"
         width="1440"
         height="1440"
         id="rect4874" />
    </clipPath>
    <clipPath
       id="clipPath4880">
      <rect
         x="546"
         y="47"
         width="1440"
         height="1440"
         id="rect4878" />
    </clipPath>
    <clipPath
       id="clipPath4884">
      <rect
         x="546"
         y="47"
         width="1440"
         height="1440"
         id="rect4882" />
    </clipPath>
    <clipPath
       id="clipPath4888">
      <rect
         x="546"
         y="47"
         width="1440"
         height="1440"
         id="rect4886" />
    </clipPath>
    <clipPath
       id="clipPath4892">
      <rect
         x="546"
         y="47"
         width="1440"
         height="1440"
         id="rect4890" />
    </clipPath>
    <clipPath
       id="clipPath4896">
      <rect
         x="546"
         y="47"
         width="1440"
         height="1440"
         id="rect4894" />
    </clipPath>
    <clipPath
       id="clipPath4900">
      <rect
         x="546"
         y="47"
         width="1440"
         height="1440"
         id="rect4898" />
    </clipPath>
    <clipPath
       id="clipPath4904">
      <rect
         x="546"
         y="47"
         width="1440"
         height="1440"
         id="rect4902" />
    </clipPath>
    <clipPath
       id="clipPath4908">
      <rect
         x="546"
         y="47"
         width="1440"
         height="1440"
         id="rect4906" />
    </clipPath>
    <clipPath
       id="clipPath4912">
      <rect
         x="546"
         y="47"
         width="1440"
         height="1440"
         id="rect4910" />
    </clipPath>
    <clipPath
       id="clipPath4916">
      <rect
         x="546"
         y="47"
         width="1440"
         height="1440"
         id="rect4914" />
    </clipPath>
    <clipPath
       id="clipPath4920">
      <rect
         x="546"
         y="47"
         width="1440"
         height="1440"
         id="rect4918" />
    </clipPath>
    <clipPath
       id="clipPath4924">
      <rect
         x="546"
         y="47"
         width="1440"
         height="1440"
         id="rect4922" />
    </clipPath>
    <clipPath
       id="clipPath4928">
      <rect
         x="546"
         y="47"
         width="1440"
         height="1440"
         id="rect4926" />
    </clipPath>
    <clipPath
       id="clipPath4932">
      <rect
         x="546"
         y="47"
         width="1440"
         height="1440"
         id="rect4930" />
    </clipPath>
    <clipPath
       id="clipPath4936">
      <rect
         x="546"
         y="47"
         width="1440"
         height="1440"
         id="rect4934" />
    </clipPath>
    <clipPath
       id="clipPath4940">
      <rect
         x="546"
         y="47"
         width="1440"
         height="1440"
         id="rect4938" />
    </clipPath>
    <clipPath
       id="clipPath4944">
      <rect
         x="546"
         y="47"
         width="1440"
         height="1440"
         id="rect4942" />
    </clipPath>
    <clipPath
       id="clipPath4948">
      <rect
         x="546"
         y="47"
         width="1440"
         height="1440"
         id="rect4946" />
    </clipPath>
    <clipPath
       id="clipPath4952">
      <rect
         x="546"
         y="47"
         width="1440"
         height="1440"
         id="rect4950" />
    </clipPath>
    <clipPath
       id="clipPath4956">
      <rect
         x="546"
         y="47"
         width="1440"
         height="1440"
         id="rect4954" />
    </clipPath>
    <clipPath
       id="clipPath4960">
      <rect
         x="546"
         y="47"
         width="1440"
         height="1440"
         id="rect4958" />
    </clipPath>
  </defs>
  <sodipodi:namedview
     id="base"
     pagecolor="#ffffff"
     bordercolor="#666666"
     borderopacity="1.0"
     inkscape:pageopacity="0.0"
     inkscape:pageshadow="2"
     inkscape:zoom="2"
     inkscape:cx="52.5"
     inkscape:cy="63.75"
     inkscape:document-units="mm"
     inkscape:current-layer="layer1"
     showgrid="false"
     inkscape:window-width="1880"
     inkscape:window-height="1049"
     inkscape:window-x="40"
     inkscape:window-y="0"
     inkscape:window-maximized="1"
     fit-margin-top="0"
     fit-margin-left="0"
     fit-margin-right="0"
     fit-margin-bottom="0"
     inkscape:pagecheckerboard="0" />
  <metadata
     id="metadata5">
    <rdf:RDF>
      <cc:Work
         rdf:about="">
        <dc:format>image/svg+xml</dc:format>
        <dc:type
           rdf:resource="http://purl.org/dc/dcmitype/StillImage" />
      </cc:Work>
    </rdf:RDF>
  </metadata>
  <g
     inkscape:label="Layer 1"
     inkscape:groupmode="layer"
     id="layer1"
     transform="translate(505.00648,16.56565)">
    <path
       sodipodi:nodetypes="cc"
       inkscape:connector-curvature="0"
       id="polyline85"
       d="M 1412.8768,219.68826 1574.39,396.553"
       clip-path="url(#clip682)"
       style="fill:none;stroke:#000000;stroke-width:4;stroke-linecap:butt;stroke-linejoin:round;stroke-dasharray:16, 10;stroke-opacity:0.5"
       transform="matrix(0.04859862,0,0,0.04859862,-553.5877,-15.940546)" />
    <path
       sodipodi:nodetypes="cc"
       inkscape:connector-curvature="0"
       id="polyline87"
       d="M 1673.5182,699.61106 1636.1,519.984"
       clip-path="url(#clip682)"
       style="fill:none;stroke:#000000;stroke-width:4;stroke-linecap:butt;stroke-linejoin:round;stroke-dasharray:16, 10;stroke-opacity:0.5"
       transform="matrix(0.04859862,0,0,0.04859862,-553.5877,-15.940546)" />
    <path
       sodipodi:nodetypes="cc"
       inkscape:connector-curvature="0"
       id="polyline91"
       d="M 1302.1661,597.17482 1512.67,519.984"
       clip-path="url(#clip682)"
       style="fill:none;stroke:#000000;stroke-width:4;stroke-linecap:butt;stroke-linejoin:round;stroke-dasharray:16, 10;stroke-opacity:0.5"
       transform="matrix(0.04859862,0,0,0.04859862,-553.5877,-15.940546)" />
    <path
       sodipodi:nodetypes="cc"
       inkscape:connector-curvature="0"
       id="polyline95"
       d="M 1687.7171,208.53424 1574.39,396.553"
       clip-path="url(#clip682)"
       style="fill:none;stroke:#000000;stroke-width:4;stroke-linecap:butt;stroke-linejoin:round;stroke-dasharray:16, 10;stroke-opacity:0.5"
       transform="matrix(0.04859862,0,0,0.04859862,-553.5877,-15.940546)" />
    <path
       sodipodi:nodetypes="cc"
       inkscape:connector-curvature="0"
       id="polyline97"
       d="M 1787.4048,408.18557 1574.39,396.553"
       clip-path="url(#clip682)"
       style="fill:none;stroke:#000000;stroke-width:4;stroke-linecap:butt;stroke-linejoin:round;stroke-dasharray:16, 10;stroke-opacity:0.5"
       transform="matrix(0.04859862,0,0,0.04859862,-553.5877,-15.940546)" />
    <polyline
       id="polyline99"
       points="   1537.71,265.964 1574.39,396.553    "
       style="fill:none;stroke:#000000;stroke-width:4;stroke-linecap:butt;stroke-linejoin:round;stroke-dasharray:16, 10;stroke-opacity:0.5"
       clip-path="url(#clip682)"
       transform="matrix(0.04859862,0,0,0.04859862,-553.5877,-15.940546)" />
    <path
       sodipodi:nodetypes="cc"
       inkscape:connector-curvature="0"
       id="polyline101"
       d="M 1823.4864,525.34347 1636.1,519.984"
       clip-path="url(#clip682)"
       style="fill:none;stroke:#000000;stroke-width:4;stroke-linecap:butt;stroke-linejoin:round;stroke-dasharray:16, 10;stroke-opacity:0.5"
       transform="matrix(0.04859862,0,0,0.04859862,-553.5877,-15.940546)" />
    <path
       sodipodi:nodetypes="cc"
       inkscape:connector-curvature="0"
       id="polyline109"
       d="M 1219.3367,331.37523 1512.67,519.984"
       clip-path="url(#clip682)"
       style="fill:none;stroke:#000000;stroke-width:6.44738;stroke-linecap:butt;stroke-linejoin:round;stroke-miterlimit:4;stroke-dasharray:25.7895, 16.1184;stroke-dashoffset:0;stroke-opacity:0.5"
       transform="matrix(0.03050717,0,0,0.02979885,-526.22131,-6.1649676)" />
    <path
       sodipodi:nodetypes="cc"
       inkscape:connector-curvature="0"
       id="polyline111"
       d="M 1411.081,681.39629 1512.67,519.984"
       clip-path="url(#clip682)"
       style="fill:none;stroke:#000000;stroke-width:4;stroke-linecap:butt;stroke-linejoin:round;stroke-dasharray:16, 10;stroke-opacity:0.5"
       transform="matrix(0.04859862,0,0,0.04859862,-553.5877,-15.940546)" />
    <polyline
       id="polyline115"
       points="   1512.67,519.984 1574.39,396.553 1636.1,519.984    "
       style="fill:none;stroke:#000000;stroke-width:8;stroke-linecap:butt;stroke-linejoin:round;stroke-opacity:1"
       clip-path="url(#clip682)"
       transform="matrix(0.04859862,0,0,0.04859862,-553.5877,-15.940546)" />
    <polyline
       transform="matrix(0.04859862,0,0,0.04859862,-552.9828,-15.033197)"
       id="polyline117"
       points="   1400.43,201.018 1343.71,225.325    "
       style="fill:none;stroke:#000000;stroke-width:8;stroke-linecap:butt;stroke-linejoin:round;stroke-opacity:1"
       clip-path="url(#clip682)" />
    <polyline
       transform="matrix(0.04859862,0,0,0.04859862,-551.35565,-27.93444)"
       id="polyline119"
       points="   1585.72,991.743 1627.59,946.406    "
       style="fill:none;stroke:#000000;stroke-width:8;stroke-linecap:butt;stroke-linejoin:round;stroke-opacity:1"
       clip-path="url(#clip682)" />
    <polyline
       transform="matrix(0.04859862,0,0,0.04859862,-551.90006,-24.063085)"
       id="polyline123"
       points="   1267.44,764.31 1263.4,702.727    "
       style="fill:none;stroke:#000000;stroke-width:8;stroke-linecap:butt;stroke-linejoin:round;stroke-opacity:1"
       clip-path="url(#clip682)" />
    <polyline
       transform="matrix(0.04859862,0,0,0.04859862,-552.07545,-12.73458)"
       id="polyline129"
       points="   1715.54,160.868 1656.6,142.566    "
       style="fill:none;stroke:#000000;stroke-width:8;stroke-linecap:butt;stroke-linejoin:round;stroke-opacity:1"
       clip-path="url(#clip682)" />
    <polyline
       id="polyline133"
       points="   1537.71,265.964 1565.82,211.018    "
       style="fill:none;stroke:#000000;stroke-width:8;stroke-linecap:butt;stroke-linejoin:round;stroke-opacity:1"
       clip-path="url(#clip682)"
       transform="matrix(0.04859862,0,0,0.04859862,-553.5877,-15.940546)" />
    <polyline
       transform="matrix(0.04859862,0,0,0.04859862,-552.92839,-26.482682)"
       id="polyline135"
       points="   1855.92,783.403 1809.92,742.266    "
       style="fill:none;stroke:#000000;stroke-width:8;stroke-linecap:butt;stroke-linejoin:round;stroke-opacity:1"
       clip-path="url(#clip682)" />
    <polyline
       transform="matrix(0.04859862,0,0,0.04859862,-537.48835,-6.0809955)"
       id="polyline143"
       points="   956.639,154.999 997.262,201.459    "
       style="fill:none;stroke:#000000;stroke-width:8;stroke-linecap:butt;stroke-linejoin:round;stroke-opacity:1"
       clip-path="url(#clip682)" />
    <polyline
       transform="matrix(0.04859862,0,0,0.04859862,-550.93222,-23.579166)"
       id="polyline145"
       points="   1356.44,838.574 1399.6,882.684    "
       style="fill:none;stroke:#000000;stroke-width:8;stroke-linecap:butt;stroke-linejoin:round;stroke-opacity:1"
       clip-path="url(#clip682)" />
    <circle
       style="fill:#cb3c33;fill-opacity:1;fill-rule:evenodd;stroke:#000000;stroke-width:3.2;stroke-opacity:1"
       id="circle153"
       r="18"
       cy="519.98401"
       cx="1512.67"
       clip-path="url(#clip682)"
       transform="matrix(0.04859862,0,0,0.04859862,-553.5877,-15.940546)" />
    <circle
       style="fill:#cb3c33;fill-opacity:1;fill-rule:evenodd;stroke:#000000;stroke-width:3.2;stroke-opacity:1"
       id="circle155"
       r="18"
       cy="396.55301"
       cx="1574.39"
       clip-path="url(#clip682)"
       transform="matrix(0.04859862,0,0,0.04859862,-553.5877,-15.940546)" />
    <circle
       style="fill:#cb3c33;fill-opacity:1;fill-rule:evenodd;stroke:#000000;stroke-width:3.2;stroke-opacity:1"
       id="circle157"
       r="18"
       cy="519.98401"
       cx="1636.1"
       clip-path="url(#clip682)"
       transform="matrix(0.04859862,0,0,0.04859862,-553.5877,-15.940546)" />
    <circle
       transform="matrix(0.04859862,0,0,0.04859862,-552.9828,-15.033197)"
       style="fill:#9558b2;fill-opacity:1;fill-rule:evenodd;stroke:#000000;stroke-width:3.2;stroke-opacity:1"
       id="circle159"
       r="18"
       cy="201.01801"
       cx="1400.4301"
       clip-path="url(#clip682)" />
    <circle
       transform="matrix(0.04859862,0,0,0.04859862,-552.9828,-15.033197)"
       style="fill:#389826;fill-opacity:1;fill-rule:evenodd;stroke:#000000;stroke-width:3.2;stroke-opacity:1"
       id="circle161"
       r="18"
       cy="225.325"
       cx="1343.71"
       clip-path="url(#clip682)" />
    <circle
       style="fill:#389826;fill-opacity:1;fill-rule:evenodd;stroke:#000000;stroke-width:3.2;stroke-opacity:1"
       transform="matrix(0.04859862,0,0,0.04859862,-551.35565,-27.93444)"
       id="circle163"
       r="18"
       cy="991.74298"
       cx="1585.72"
       clip-path="url(#clip682)" />
    <circle
       style="fill:#9558b2;fill-opacity:1;fill-rule:evenodd;stroke:#000000;stroke-width:3.2;stroke-opacity:1"
       transform="matrix(0.04859862,0,0,0.04859862,-551.35565,-27.93444)"
       id="circle165"
       r="18"
       cy="946.40601"
       cx="1627.59"
       clip-path="url(#clip682)" />
    <circle
       style="fill:#389826;fill-opacity:1;fill-rule:evenodd;stroke:#000000;stroke-width:3.2;stroke-opacity:1"
       transform="matrix(0.04859862,0,0,0.04859862,-551.90006,-24.063085)"
       id="circle171"
       r="18"
       cy="764.31"
       cx="1267.4399"
       clip-path="url(#clip682)" />
    <circle
       style="fill:#9558b2;fill-opacity:1;fill-rule:evenodd;stroke:#000000;stroke-width:3.2;stroke-opacity:1"
       transform="matrix(0.04859862,0,0,0.04859862,-551.90006,-24.063085)"
       id="circle173"
       r="18"
       cy="702.72699"
       cx="1263.4"
       clip-path="url(#clip682)" />
    <circle
       transform="matrix(0.04859862,0,0,0.04859862,-552.07545,-12.73458)"
       style="fill:#9558b2;fill-opacity:1;fill-rule:evenodd;stroke:#000000;stroke-width:3.2;stroke-opacity:1"
       id="circle183"
       r="18"
       cy="160.868"
       cx="1715.54"
       clip-path="url(#clip682)" />
    <circle
       transform="matrix(0.04859862,0,0,0.04859862,-552.07545,-12.73458)"
       style="fill:#389826;fill-opacity:1;fill-rule:evenodd;stroke:#000000;stroke-width:3.2;stroke-opacity:1"
       id="circle185"
       r="18"
       cy="142.56599"
       cx="1656.6"
       clip-path="url(#clip682)" />
    <g
       id="g1797">
      <polyline
         transform="matrix(0.04859862,0,0,0.04859862,-550.68418,-15.093687)"
         id="polyline131"
         points="   1775.43,351.693 1727.66,390.76    "
         style="fill:none;stroke:#000000;stroke-width:8;stroke-linecap:butt;stroke-linejoin:round;stroke-opacity:1"
         clip-path="url(#clip682)" />
      <circle
         transform="matrix(0.04859862,0,0,0.04859862,-550.68418,-15.093687)"
         style="fill:#9558b2;fill-opacity:1;fill-rule:evenodd;stroke:#000000;stroke-width:3.2;stroke-opacity:1"
         id="circle187"
         r="18"
         cy="351.69299"
         cx="1775.4301"
         clip-path="url(#clip682)" />
      <circle
         transform="matrix(0.04859862,0,0,0.04859862,-550.68418,-15.093687)"
         style="fill:#389826;fill-opacity:1;fill-rule:evenodd;stroke:#000000;stroke-width:3.2;stroke-opacity:1"
         id="circle189"
         r="18"
         cy="390.76001"
         cx="1727.66"
         clip-path="url(#clip682)" />
    </g>
    <circle
       style="fill:#9558b2;fill-opacity:1;fill-rule:evenodd;stroke:#000000;stroke-width:3.2;stroke-opacity:1"
       id="circle191"
       r="18"
       cy="265.96399"
       cx="1537.71"
       clip-path="url(#clip682)"
       transform="matrix(0.04859862,0,0,0.04859862,-553.5877,-15.940546)" />
    <circle
       style="fill:#389826;fill-opacity:1;fill-rule:evenodd;stroke:#000000;stroke-width:3.2;stroke-opacity:1"
       id="circle193"
       r="18"
       cy="211.01801"
       cx="1565.8199"
       clip-path="url(#clip682)"
       transform="matrix(0.04859862,0,0,0.04859862,-553.5877,-15.940546)" />
    <circle
       style="fill:#9558b2;fill-opacity:1;fill-rule:evenodd;stroke:#000000;stroke-width:3.2;stroke-opacity:1"
       transform="matrix(0.04859862,0,0,0.04859862,-552.92839,-26.482682)"
       id="circle195"
       r="18"
       cy="783.40302"
       cx="1855.92"
       clip-path="url(#clip682)" />
    <circle
       style="fill:#389826;fill-opacity:1;fill-rule:evenodd;stroke:#000000;stroke-width:3.2;stroke-opacity:1"
       transform="matrix(0.04859862,0,0,0.04859862,-552.92839,-26.482682)"
       id="circle197"
       r="18"
       cy="742.26599"
       cx="1809.92"
       clip-path="url(#clip682)" />
    <circle
       style="fill:#9558b2;fill-opacity:1;fill-rule:evenodd;stroke:#000000;stroke-width:3.2;stroke-opacity:1"
       transform="matrix(0.04859862,0,0,0.04859862,-537.48835,-6.0809955)"
       id="circle211"
       r="18"
       cy="154.99899"
       cx="956.63898"
       clip-path="url(#clip682)" />
    <circle
       style="fill:#389826;fill-opacity:1;fill-rule:evenodd;stroke:#000000;stroke-width:3.2;stroke-opacity:1"
       transform="matrix(0.04859862,0,0,0.04859862,-537.48835,-6.0809955)"
       id="circle213"
       r="18"
       cy="201.459"
       cx="997.26202"
       clip-path="url(#clip682)" />
    <circle
       style="fill:#389826;fill-opacity:1;fill-rule:evenodd;stroke:#000000;stroke-width:3.2;stroke-opacity:1"
       transform="matrix(0.04859862,0,0,0.04859862,-550.93222,-23.579166)"
       id="circle215"
       r="18"
       cy="838.57397"
       cx="1356.4399"
       clip-path="url(#clip682)" />
    <circle
       style="fill:#9558b2;fill-opacity:1;fill-rule:evenodd;stroke:#000000;stroke-width:3.2;stroke-opacity:1"
       transform="matrix(0.04859862,0,0,0.04859862,-550.93222,-23.579166)"
       id="circle217"
       r="18"
       cy="882.68402"
       cx="1399.6"
       clip-path="url(#clip682)" />
    <g
       id="g1805"
       transform="rotate(-44.087344,-476.15378,-8.0113337)">
      <polyline
         transform="matrix(0.04859862,0,0,0.04859862,-550.68418,-15.093687)"
         id="polyline1799"
         points="   1775.43,351.693 1727.66,390.76    "
         style="fill:none;stroke:#000000;stroke-width:8;stroke-linecap:butt;stroke-linejoin:round;stroke-opacity:1"
         clip-path="url(#clip682)" />
      <circle
         transform="matrix(0.04859862,0,0,0.04859862,-550.68418,-15.093687)"
         style="fill:#9558b2;fill-opacity:1;fill-rule:evenodd;stroke:#000000;stroke-width:3.2;stroke-opacity:1"
         id="circle1801"
         r="18"
         cy="351.69299"
         cx="1775.4301"
         clip-path="url(#clip682)" />
      <circle
         transform="matrix(0.04859862,0,0,0.04859862,-550.68418,-15.093687)"
         style="fill:#389826;fill-opacity:1;fill-rule:evenodd;stroke:#000000;stroke-width:3.2;stroke-opacity:1"
         id="circle1803"
         r="18"
         cy="390.76001"
         cx="1727.66"
         clip-path="url(#clip682)" />
    </g>
    <g
       id="g1813"
       transform="translate(8.4705095,-4.5716446)">
      <g
         id="g2000"
         transform="rotate(29.146907,-464.18662,4.5597947)">
        <polyline
           transform="matrix(0.04859862,0,0,0.04859862,-550.68418,-15.093687)"
           id="polyline1807"
           points="   1775.43,351.693 1727.66,390.76    "
           style="fill:none;stroke:#000000;stroke-width:8;stroke-linecap:butt;stroke-linejoin:round;stroke-opacity:1"
           clip-path="url(#clip682)" />
        <ellipse
           transform="matrix(0.04859862,0,0,0.04859862,-550.68418,-15.093687)"
           style="fill:#9558b2;fill-opacity:1;fill-rule:evenodd;stroke:#000000;stroke-width:3.2;stroke-opacity:1"
           id="circle1809"
           cy="351.69299"
           cx="1775.4301"
           clip-path="url(#clip682)"
           rx="18.004627"
           ry="18" />
        <circle
           transform="matrix(0.04859862,0,0,0.04859862,-550.68418,-15.093687)"
           style="fill:#389826;fill-opacity:1;fill-rule:evenodd;stroke:#000000;stroke-width:3.2;stroke-opacity:1"
           id="circle1811"
           r="18"
           cy="390.76001"
           cx="1727.66"
           clip-path="url(#clip682)" />
      </g>
    </g>
    <g
       id="g1821"
       transform="rotate(-17.652163,-448.77343,-28.02238)">
      <polyline
         transform="matrix(0.04859862,0,0,0.04859862,-550.68418,-15.093687)"
         id="polyline1815"
         points="   1775.43,351.693 1727.66,390.76    "
         style="fill:none;stroke:#000000;stroke-width:8;stroke-linecap:butt;stroke-linejoin:round;stroke-opacity:1"
         clip-path="url(#clip682)" />
      <circle
         transform="matrix(0.04859862,0,0,0.04859862,-550.68418,-15.093687)"
         style="fill:#9558b2;fill-opacity:1;fill-rule:evenodd;stroke:#000000;stroke-width:3.2;stroke-opacity:1"
         id="circle1817"
         r="18"
         cy="351.69299"
         cx="1775.4301"
         clip-path="url(#clip682)" />
      <circle
         transform="matrix(0.04859862,0,0,0.04859862,-550.68418,-15.093687)"
         style="fill:#389826;fill-opacity:1;fill-rule:evenodd;stroke:#000000;stroke-width:3.2;stroke-opacity:1"
         id="circle1819"
         r="18"
         cy="390.76001"
         cx="1727.66"
         clip-path="url(#clip682)" />
    </g>
    <g
       id="g1829"
       transform="rotate(74.941102,-470.5525,15.174402)">
      <polyline
         transform="matrix(0.04859862,0,0,0.04859862,-550.68418,-15.093687)"
         id="polyline1823"
         points="   1775.43,351.693 1727.66,390.76    "
         style="fill:none;stroke:#000000;stroke-width:8;stroke-linecap:butt;stroke-linejoin:round;stroke-opacity:1"
         clip-path="url(#clip682)" />
      <circle
         transform="matrix(0.04859862,0,0,0.04859862,-550.68418,-15.093687)"
         style="fill:#9558b2;fill-opacity:1;fill-rule:evenodd;stroke:#000000;stroke-width:3.2;stroke-opacity:1"
         id="circle1825"
         r="18"
         cy="351.69299"
         cx="1775.4301"
         clip-path="url(#clip682)" />
      <circle
         transform="matrix(0.04859862,0,0,0.04859862,-550.68418,-15.093687)"
         style="fill:#389826;fill-opacity:1;fill-rule:evenodd;stroke:#000000;stroke-width:3.2;stroke-opacity:1"
         id="circle1827"
         r="18"
         cy="390.76001"
         cx="1727.66"
         clip-path="url(#clip682)" />
    </g>
    <g
       id="g1837"
       transform="translate(-0.05174141,18.440222)">
      <polyline
         transform="matrix(0.04859862,0,0,0.04859862,-550.68418,-15.093687)"
         id="polyline1831"
         points="   1775.43,351.693 1727.66,390.76    "
         style="fill:none;stroke:#000000;stroke-width:8;stroke-linecap:butt;stroke-linejoin:round;stroke-opacity:1"
         clip-path="url(#clip682)" />
      <circle
         transform="matrix(0.04859862,0,0,0.04859862,-550.68418,-15.093687)"
         style="fill:#9558b2;fill-opacity:1;fill-rule:evenodd;stroke:#000000;stroke-width:3.2;stroke-opacity:1"
         id="circle1833"
         r="18"
         cy="351.69299"
         cx="1775.4301"
         clip-path="url(#clip682)" />
      <circle
         transform="matrix(0.04859862,0,0,0.04859862,-550.68418,-15.093687)"
         style="fill:#389826;fill-opacity:1;fill-rule:evenodd;stroke:#000000;stroke-width:3.2;stroke-opacity:1"
         id="circle1835"
         r="18"
         cy="390.76001"
         cx="1727.66"
         clip-path="url(#clip682)" />
    </g>
    <g
       id="g1845"
       transform="translate(-19.908177,22.139511)">
      <polyline
         transform="matrix(0.04859862,0,0,0.04859862,-550.68418,-15.093687)"
         id="polyline1839"
         points="   1775.43,351.693 1727.66,390.76    "
         style="fill:none;stroke:#000000;stroke-width:8;stroke-linecap:butt;stroke-linejoin:round;stroke-opacity:1"
         clip-path="url(#clip682)" />
      <circle
         transform="matrix(0.04859862,0,0,0.04859862,-550.68418,-15.093687)"
         style="fill:#9558b2;fill-opacity:1;fill-rule:evenodd;stroke:#000000;stroke-width:3.2;stroke-opacity:1"
         id="circle1841"
         r="18"
         cy="351.69299"
         cx="1775.4301"
         clip-path="url(#clip682)" />
      <circle
         transform="matrix(0.04859862,0,0,0.04859862,-550.68418,-15.093687)"
         style="fill:#389826;fill-opacity:1;fill-rule:evenodd;stroke:#000000;stroke-width:3.2;stroke-opacity:1"
         id="circle1843"
         r="18"
         cy="390.76001"
         cx="1727.66"
         clip-path="url(#clip682)" />
    </g>
    <g
       id="g1853"
       transform="rotate(-59.989316,-465.67072,38.344927)">
      <polyline
         transform="matrix(0.04859862,0,0,0.04859862,-550.68418,-15.093687)"
         id="polyline1847"
         points="   1775.43,351.693 1727.66,390.76    "
         style="fill:none;stroke:#000000;stroke-width:8;stroke-linecap:butt;stroke-linejoin:round;stroke-opacity:1"
         clip-path="url(#clip682)" />
      <circle
         transform="matrix(0.04859862,0,0,0.04859862,-550.68418,-15.093687)"
         style="fill:#9558b2;fill-opacity:1;fill-rule:evenodd;stroke:#000000;stroke-width:3.2;stroke-opacity:1"
         id="circle1849"
         r="18"
         cy="351.69299"
         cx="1775.4301"
         clip-path="url(#clip682)" />
      <circle
         transform="matrix(0.04859862,0,0,0.04859862,-550.68418,-15.093687)"
         style="fill:#389826;fill-opacity:1;fill-rule:evenodd;stroke:#000000;stroke-width:3.2;stroke-opacity:1"
         id="circle1851"
         r="18"
         cy="390.76001"
         cx="1727.66"
         clip-path="url(#clip682)" />
    </g>
    <g
       id="g1861"
       transform="rotate(81.928016,-484.92319,-14.185468)">
      <polyline
         transform="matrix(0.04859862,0,0,0.04859862,-550.68418,-15.093687)"
         id="polyline1855"
         points="   1775.43,351.693 1727.66,390.76    "
         style="fill:none;stroke:#000000;stroke-width:8;stroke-linecap:butt;stroke-linejoin:round;stroke-opacity:1"
         clip-path="url(#clip682)" />
      <circle
         transform="matrix(0.04859862,0,0,0.04859862,-550.68418,-15.093687)"
         style="fill:#9558b2;fill-opacity:1;fill-rule:evenodd;stroke:#000000;stroke-width:3.2;stroke-opacity:1"
         id="circle1857"
         r="18"
         cy="351.69299"
         cx="1775.4301"
         clip-path="url(#clip682)" />
      <circle
         transform="matrix(0.04859862,0,0,0.04859862,-550.68418,-15.093687)"
         style="fill:#389826;fill-opacity:1;fill-rule:evenodd;stroke:#000000;stroke-width:3.2;stroke-opacity:1"
         id="circle1859"
         r="18"
         cy="390.76001"
         cx="1727.66"
         clip-path="url(#clip682)" />
    </g>
    <g
       id="g2011"
       transform="rotate(-81.190299,-497.98815,-3.0481118)">
      <g
         id="g1869"
         transform="translate(-32.42664,-5.9955205)">
        <polyline
           transform="matrix(0.04859862,0,0,0.04859862,-550.68418,-15.093687)"
           id="polyline1863"
           points="   1775.43,351.693 1727.66,390.76    "
           style="fill:none;stroke:#000000;stroke-width:8;stroke-linecap:butt;stroke-linejoin:round;stroke-opacity:1"
           clip-path="url(#clip682)" />
        <circle
           transform="matrix(0.04859862,0,0,0.04859862,-550.68418,-15.093687)"
           style="fill:#9558b2;fill-opacity:1;fill-rule:evenodd;stroke:#000000;stroke-width:3.2;stroke-opacity:1"
           id="circle1865"
           r="18"
           cy="351.69299"
           cx="1775.4301"
           clip-path="url(#clip682)" />
        <circle
           transform="matrix(0.04859862,0,0,0.04859862,-550.68418,-15.093687)"
           style="fill:#389826;fill-opacity:1;fill-rule:evenodd;stroke:#000000;stroke-width:3.2;stroke-opacity:1"
           id="circle1867"
           r="18"
           cy="390.76001"
           cx="1727.66"
           clip-path="url(#clip682)" />
      </g>
    </g>
    <g
       id="g1877"
       transform="rotate(-57.298926,-491.36043,19.209918)">
      <polyline
         transform="matrix(0.04859862,0,0,0.04859862,-550.68418,-15.093687)"
         id="polyline1871"
         points="   1775.43,351.693 1727.66,390.76    "
         style="fill:none;stroke:#000000;stroke-width:8;stroke-linecap:butt;stroke-linejoin:round;stroke-opacity:1"
         clip-path="url(#clip682)" />
      <circle
         transform="matrix(0.04859862,0,0,0.04859862,-550.68418,-15.093687)"
         style="fill:#9558b2;fill-opacity:1;fill-rule:evenodd;stroke:#000000;stroke-width:3.2;stroke-opacity:1"
         id="circle1873"
         r="18"
         cy="351.69299"
         cx="1775.4301"
         clip-path="url(#clip682)" />
      <circle
         transform="matrix(0.04859862,0,0,0.04859862,-550.68418,-15.093687)"
         style="fill:#389826;fill-opacity:1;fill-rule:evenodd;stroke:#000000;stroke-width:3.2;stroke-opacity:1"
         id="circle1875"
         r="18"
         cy="390.76001"
         cx="1727.66"
         clip-path="url(#clip682)" />
    </g>
    <g
       id="g1885"
       transform="translate(-5.851849,-14.23322)">
      <polyline
         transform="matrix(0.04859862,0,0,0.04859862,-550.68418,-15.093687)"
         id="polyline1879"
         points="   1775.43,351.693 1727.66,390.76    "
         style="fill:none;stroke:#000000;stroke-width:8;stroke-linecap:butt;stroke-linejoin:round;stroke-opacity:1"
         clip-path="url(#clip682)" />
      <circle
         transform="matrix(0.04859862,0,0,0.04859862,-550.68418,-15.093687)"
         style="fill:#9558b2;fill-opacity:1;fill-rule:evenodd;stroke:#000000;stroke-width:3.2;stroke-opacity:1"
         id="circle1881"
         r="18"
         cy="351.69299"
         cx="1775.4301"
         clip-path="url(#clip682)" />
      <circle
         transform="matrix(0.04859862,0,0,0.04859862,-550.68418,-15.093687)"
         style="fill:#389826;fill-opacity:1;fill-rule:evenodd;stroke:#000000;stroke-width:3.2;stroke-opacity:1"
         id="circle1883"
         r="18"
         cy="390.76001"
         cx="1727.66"
         clip-path="url(#clip682)" />
    </g>
    <g
       id="g1893"
       transform="translate(2.1882206,-16.082033)">
      <g
         id="g2005"
         transform="rotate(52.562351,-465.56151,2.9474087)">
        <polyline
           transform="matrix(0.04859862,0,0,0.04859862,-550.68418,-15.093687)"
           id="polyline1887"
           points="   1775.43,351.693 1727.66,390.76    "
           style="fill:none;stroke:#000000;stroke-width:8;stroke-linecap:butt;stroke-linejoin:round;stroke-opacity:1"
           clip-path="url(#clip682)" />
        <circle
           transform="matrix(0.04859862,0,0,0.04859862,-550.68418,-15.093687)"
           style="fill:#9558b2;fill-opacity:1;fill-rule:evenodd;stroke:#000000;stroke-width:3.2;stroke-opacity:1"
           id="circle1889"
           r="18"
           cy="351.69299"
           cx="1775.4301"
           clip-path="url(#clip682)" />
        <circle
           transform="matrix(0.04859862,0,0,0.04859862,-550.68418,-15.093687)"
           style="fill:#389826;fill-opacity:1;fill-rule:evenodd;stroke:#000000;stroke-width:3.2;stroke-opacity:1"
           id="circle1891"
           r="18"
           cy="390.76001"
           cx="1727.66"
           clip-path="url(#clip682)" />
      </g>
    </g>
    <path
       id="path1546"
       style="fill:#ffffff;fill-opacity:0.662555;stroke:#000000;stroke-width:0.687092px;stroke-linecap:butt;stroke-linejoin:miter;stroke-opacity:1"
       d="M -0.94726562,0.33984375 V 174.02344 H 215.42773 V 0.33984375 Z M 95.609375,24.642578 c 9.454635,0.119343 21.374965,10.808913 31.589845,8.689453 15.01553,-4.099731 20.05742,20.944427 23.52344,17.166016 26.06573,-3.855238 4.15234,28.426271 16.04296,41.048828 14.56336,26.251545 -18.69461,19.336885 -27.11914,35.746095 -10.05932,29.96944 -44.327518,20.34071 -67.138668,14.07617 C 46.544764,136.85473 39.079903,106.8591 41.619141,84.253906 44.09235,59.025076 54.397091,23.301341 87.740234,28.175781 c 2.312531,-2.615255 4.974864,-3.569736 7.869141,-3.533203 z"
       transform="matrix(0.26458333,0,0,0.26458333,-504.66495,-16.56467)" />
  </g>
</svg>
